PathFileType	4	(X/Y/Z)	S01_0004_Gait_markers.trc
DataRate	CameraRate	NumFrames	NumMarkers	Units	OrigDataRate	OrigDataStartFrame	OrigNumFrames
250.000000	250.000000	4	54	mm	250.000000	240	320
Frame#	Time	HEAD_ANT			R_HEAD			L_HEAD			C7			R_BACK			L_BACK			STERNUM			R_ACROMION			R_HUM_PROX			R_HUM_ANT			R_HUM_POST			R_ELBOW_LAT			R_ELBOW_MED			R_FOREARM			R_WIRST_LAT			R_WRITS_MED			R_HAND			L_ACROMION			L_HUM_PROX			L_HUM_ANT			L_HUM_POST			L_ELBOW_LAT			L_ELBOW_MED			L_FOREARM			L_WRIST_LAT			L_WIRST_MED			L_HAND			R_ILIAC			SACRUM			L_ILIAC			R_GTROCH			R_THIGH__1			R_THIGH_2			R_THIGH_3			R_THIGH_4			R_SHANK_1			R_SHANK_2			R_SHANK_3			R_SHANK_4			R_HEEL			R_FOOT_LAT			R_FOOT_MED			L_GTROCH			L_THIGH_1			L_THIGH_2			L_THIGH_3			L_THIGH_4			L_SHANK_1			L_SHANK_2			L_SHANK_3			L_SHANK_4			L_HEEL			L_FOOT_LAT			L_FOOT_MED			
		X1	Y1	Z1	X2	Y2	Z2	X3	Y3	Z3	X4	Y4	Z4	X5	Y5	Z5	X6	Y6	Z6	X7	Y7	Z7	X8	Y8	Z8	X9	Y9	Z9	X10	Y10	Z10	X11	Y11	Z11	X12	Y12	Z12	X13	Y13	Z13	X14	Y14	Z14	X15	Y15	Z15	X16	Y16	Z16	X17	Y17	Z17	X18	Y18	Z18	X19	Y19	Z19	X20	Y20	Z20	X21	Y21	Z21	X22	Y22	Z22	X23	Y23	Z23	X24	Y24	Z24	X25	Y25	Z25	X26	Y26	Z26	X27	Y27	Z27	X28	Y28	Z28	X29	Y29	Z29	X30	Y30	Z30	X31	Y31	Z31	X32	Y32	Z32	X33	Y33	Z33	X34	Y34	Z34	X35	Y35	Z35	X36	Y36	Z36	X37	Y37	Z37	X38	Y38	Z38	X39	Y39	Z39	X40	Y40	Z40	X41	Y41	Z41	X42	Y42	Z42	X43	Y43	Z43	X44	Y44	Z44	X45	Y45	Z45	X46	Y46	Z46	X47	Y47	Z47	X48	Y48	Z48	X49	Y49	Z49	X50	Y50	Z50	X51	Y51	Z51	X52	Y52	Z52	X53	Y53	Z53	X54	Y54	Z54	

241	0.96	1501.981811523438	388.1239318847656	1749.755737304688	1439.750366210938	308.9585876464844	1707.473388671875	1443.62744140625	455.3311157226562	1696.870849609375	1302.111206054688	380.1171875	1535.320922851562	1222.091674804688	314.8713989257812	1340.340576171875	1230.737060546875	456.3781127929688	1343.840087890625	1475.067749023438	367.6723022460938	1369.82568359375	1369.578002929688	203.1728973388672	1486.036865234375	1320.880126953125	110.7056427001953	1329.3857421875	1379.259643554688	100.9247283935547	1242.185546875	1257.94287109375	98.98678588867188	1248.60546875	1304.0107421875	84.38726806640625	1140.894653320312	1279.824340820312	165.2553863525391	1135.307739257812	1405.946411132812	84.38088989257812	958.2393798828125	1443.498779296875	124.868537902832	892.1273803710938	1377.442138671875	82.65530395507812	868.391357421875	1449.956420898438	67.86441040039062	805.1409301757812	1393.07861328125	541.3667602539062	1489.267456054688	1384.988159179688	639.450927734375	1323.122680664062	1446.86083984375	629.3444213867188	1243.52685546875	1331.431518554688	673.2001953125	1244.829223632812	1391.619262695312	672.4490356445312	1141.449951171875	1334.065795898438	622.9551391601562	1134.7197265625	1505.550903320312	636.1516723632812	974.5855712890625	1533.012817382812	579.4415893554688	915.66015625	1499.32177734375	646.4215087890625	890.751220703125	1576.447143554688	622.6970825195312	839.7393798828125	1369.240844726562	205.7091827392578	1087.864379882812	1243.054931640625	374.7420654296875	1061.145751953125	1367.583129882812	549.8302001953125	1082.472290039062	1335.381713867188	185.7531280517578	936.513671875	1450.049438476562	205.0400848388672	667.941162109375	1500.657958984375	202.6413879394531	697.77880859375	1530.3505859375	232.836669921875	598.4370727539062	1466.4814453125	223.4316101074219	588.785888671875	1438.179809570312	215.2188110351562	378.6416320800781	1489.2470703125	228.6839599609375	349.2987060546875	1471.968627929688	243.7744445800781	265.8915100097656	1410.44189453125	233.1847839355469	281.944580078125	1344.048583984375	312.6830749511719	71.92971038818359	1500.052368164062	222.0429229736328	37.54927062988281	1560.281860351562	308.9443054199219	49.32685470581055	1321.471069335938	551.8658447265625	969.2560424804688	1357.273681640625	532.4312744140625	675.1779174804688	1307.6865234375	545.455078125	703.65283203125	1277.686401367188	510.4360046386719	606.7330322265625	1341.31591796875	507.2239685058594	598.658447265625	1257.658935546875	491.3444519042969	338.9238891601562	1198.044311523438	489.7842102050781	325.9562683105469	1184.443237304688	470.4856872558594	241.6674041748047	1248.405029296875	466.5499572753906	239.0352935791016	1125.687622070312	393.5726623535156	62.12546539306641	1298.369140625	464.70703125	18.38946151733398	1334.811157226562	360.5917358398438	30.69801139831543	
242	0.964	1507.498413085938	387.8946533203125	1748.88427734375	1445.164306640625	308.8898010253906	1706.76220703125	1449.228881835938	455.2663269042969	1696.05078125	1307.435791015625	379.9579467773438	1534.823608398438	1227.30859375	315.314208984375	1339.6591796875	1235.9404296875	456.3915405273438	1343.217163085938	1480.296142578125	367.3345947265625	1369.1669921875	1374.6181640625	203.0715942382812	1485.2666015625	1325.713745117188	110.6146850585938	1328.686889648438	1383.933837890625	100.7429122924805	1241.52978515625	1262.48291015625	98.9642333984375	1248.11669921875	1308.61572265625	84.20539093017578	1140.2177734375	1284.759643554688	165.0751800537109	1134.62646484375	1410.562377929688	83.81250762939453	957.5542602539062	1448.17138671875	124.258659362793	891.576904296875	1382.120971679688	82.21979522705078	867.7013549804688	1454.652465820312	67.22437286376953	804.5330200195312	1398.638671875	541.1950073242188	1488.437744140625	1390.939086914062	639.326171875	1322.62255859375	1453.022705078125	629.1187133789062	1243.078979492188	1337.759643554688	673.3605346679688	1244.301391601562	1397.91552734375	672.666748046875	1141.197998046875	1340.583740234375	623.0853271484375	1134.114379882812	1512.57958984375	636.1107788085938	974.4089965820312	1540.00634765625	579.09228515625	915.6571044921875	1506.745239257812	646.24853515625	890.6666870117188	1583.88134765625	622.0940551757812	839.9638671875	1374.480346679688	205.8316802978516	1087.10302734375	1248.40625	374.77099609375	1060.558349609375	1372.912841796875	549.8896484375	1081.948608398438	1340.944091796875	186.06982421875	935.8959350585938	1455.858276367188	205.3014678955078	667.4274291992188	1506.37744140625	202.8867034912109	697.493408203125	1536.259155273438	233.2360076904297	598.3023071289062	1472.581909179688	223.74609375	588.4857177734375	1447.790649414062	215.8470916748047	377.2689819335938	1499.474487304688	229.2711334228516	348.8923034667969	1484.112182617188	244.3498229980469	265.061279296875	1422.305786132812	233.9843139648438	280.0660705566406	1361.195922851562	314.7128295898438	68.40970611572266	1516.710815429688	222.8343505859375	36.67548751831055	1577.394287109375	309.4181213378906	49.98872756958008	1326.330444335938	551.8817749023438	968.7224731445312	1360.009643554688	532.5037841796875	675.04150390625	1310.463623046875	545.8447265625	703.8092651367188	1279.750610351562	510.4899597167969	606.880126953125	1343.197021484375	507.0843200683594	598.2606811523438	1258.530151367188	491.2063598632812	339.1052856445312	1198.919677734375	489.5467224121094	326.2707824707031	1185.13037109375	470.0732116699219	242.0237731933594	1249.106323242188	466.2941589355469	239.2412109375	1125.945678710938	392.9193115234375	62.78682708740234	1297.927612304688	464.67431640625	18.56102752685547	1334.996215820312	360.5188903808594	30.64207458496094	
243	0.968	1513.004638671875	387.7164611816406	1748.123413085938	1450.555053710938	308.6900329589844	1705.967895507812	1454.628051757812	454.9804382324219	1695.41162109375	1312.796752929688	379.8914489746094	1534.102172851562	1232.398071289062	315.6206359863281	1338.88916015625	1240.8525390625	456.6178588867188	1342.834838867188	1485.570678710938	367.0441284179688	1368.2958984375	1379.62109375	202.8354034423828	1484.537231445312	1331.173583984375	109.8764724731445	1328.04443359375	1388.618774414062	100.616081237793	1240.805297851562	1267.310668945312	98.88316345214844	1247.379150390625	1313.16796875	84.10650634765625	1139.300903320312	1289.482299804688	165.1135559082031	1134.007202148438	1415.119140625	83.32960510253906	956.8954467773438	1452.898681640625	123.7333602905273	890.8871459960938	1386.641845703125	81.79775238037109	867.00439453125	1459.208374023438	66.62531280517578	803.9332885742188	1404.156372070312	540.9839477539062	1487.778442382812	1396.9501953125	639.296875	1322.15771484375	1458.99755859375	629.0056762695312	1242.65673828125	1343.996337890625	673.5197143554688	1243.580078125	1404.523193359375	672.4060668945312	1140.771240234375	1346.90771484375	623.3023071289062	1133.407470703125	1519.536865234375	635.931884765625	974.2241821289062	1546.989379882812	578.8775634765625	915.625732421875	1514.050903320312	646.144775390625	890.4349975585938	1591.2646484375	621.4728393554688	839.9927368164062	1379.80615234375	205.8263244628906	1086.428833007812	1253.712646484375	374.9696960449219	1059.840942382812	1378.25244140625	549.9947509765625	1081.287231445312	1346.370239257812	186.1955871582031	935.3790893554688	1461.601196289062	205.5120239257812	667.0214233398438	1512.067260742188	202.6729888916016	697.0874633789062	1542.18115234375	233.4916687011719	598.0517578125	1478.665893554688	223.7548370361328	588.171142578125	1457.381469726562	216.4350433349609	375.7710571289062	1509.861938476562	229.7390289306641	348.5999755859375	1496.265625	244.9990997314453	264.3874206542969	1434.066284179688	234.75927734375	278.10546875	1377.050537109375	314.9191284179688	65.59684753417969	1533.557739257812	223.636474609375	36.23754119873047	1594.470703125	310.0236206054688	50.25600433349609	1331.050170898438	551.982666015625	968.2424926757812	1362.279052734375	532.7371826171875	673.9893188476562	1313.109985351562	545.1990356445312	703.069091796875	1282.291381835938	510.8688659667969	607.5413818359375	1345.608276367188	507.3419189453125	598.1006469726562	1259.34912109375	490.9925537109375	339.2769470214844	1199.8505859375	489.2686462402344	326.6437683105469	1185.781494140625	469.6626281738281	242.4752349853516	1249.919189453125	466.0342102050781	239.5213775634766	1126.243286132812	392.3057861328125	63.28561782836914	1297.806030273438	464.5281372070312	18.62116241455078	1335.018310546875	360.2502136230469	30.44162559509277	
244	0.972	1518.487915039062	387.4888916015625	1747.243530273438	1456.012451171875	308.3876953125	1705.090698242188	1460.224853515625	454.876708984375	1694.551147460938	1318.2392578125	379.6902770996094	1533.283569335938	1237.848510742188	315.5147399902344	1338.081665039062	1246.262939453125	456.8907470703125	1342.300415039062	1490.427612304688	366.6939086914062	1367.468383789062	1384.6337890625	202.5726623535156	1483.730590820312	1335.8857421875	109.8590469360352	1327.319213867188	1393.399658203125	100.4181976318359	1239.933837890625	1272.0673828125	98.87825775146484	1246.670166015625	1317.693115234375	83.98200988769531	1138.676635742188	1294.060546875	165.0853271484375	1133.301513671875	1419.697265625	82.76048278808594	956.0313720703125	1457.62744140625	123.1703262329102	890.2073974609375	1391.257080078125	81.43575286865234	866.2919311523438	1463.80419921875	66.003173828125	803.1127319335938	1409.866455078125	540.8346557617188	1487.078002929688	1403.100463867188	639.2110595703125	1321.528442382812	1465.225708007812	628.8994140625	1242.138793945312	1350.196044921875	673.55517578125	1242.887451171875	1411.13818359375	673.0061645507812	1140.253295898438	1353.050903320312	623.6744384765625	1132.6806640625	1526.479248046875	635.732177734375	974.1099853515625	1553.946899414062	578.6328125	915.4893188476562	1521.357421875	646.0479125976562	890.2529296875	1598.686645507812	620.9631958007812	839.9046020507812	1385.309204101562	205.9322814941406	1085.67822265625	1259.081665039062	374.7874450683594	1059.119262695312	1383.657958984375	550.0942993164062	1080.602661132812	1351.721923828125	186.2781829833984	934.7797241210938	1467.2822265625	205.7747802734375	666.26318359375	1517.649780273438	203.1014404296875	696.68994140625	1548.088989257812	233.6058197021484	597.647216796875	1484.5361328125	224.4013977050781	587.4825439453125	1467.1669921875	216.9857482910156	374.2763977050781	1520.118286132812	230.2943115234375	348.2887573242188	1508.447387695312	245.59765625	263.8243103027344	1445.968505859375	235.500732421875	276.1391906738281	1393.628662109375	316.6448059082031	62.58545684814453	1550.313354492188	224.4404449462891	35.93618392944336	1611.333862304688	310.7167663574219	51.10329055786133	1335.968505859375	552.1298828125	967.6071166992188	1365.341064453125	532.71875	674.1890869140625	1315.99853515625	545.4622802734375	703.486083984375	1284.710205078125	511.0020446777344	607.7147216796875	1347.869018554688	507.3746948242188	597.6890258789062	1260.434204101562	491.1555786132812	339.91748046875	1200.745483398438	488.9455871582031	326.9873046875	1186.468505859375	469.3110656738281	242.88525390625	1250.668334960938	465.8826293945312	239.7078094482422	1126.465454101562	391.7420349121094	63.83179092407227	1297.679565429688	464.3979187011719	18.67240905761719	1335.27783203125	360.3435974121094	30.4148063659668	
